<svg width="63" height="63" fill="none" xmlns="http://www.w3.org/2000/svg"><g clip-path="url(#clip0_767:767)"><path d="M49.213 29.432l.006-16.636L24.609.492 0 12.797v16.3a30.473 30.473 0 0013.59 25.396l11.02 7.343 8.489-5.654A16.72 16.72 0 1049.213 29.43zM24.609 59.474l-9.927-6.617a28.504 28.504 0 01-12.713-23.76V14.012l22.64-11.32 22.641 11.32v15.192c-.327-.02-.65-.05-.984-.05-.334 0-.659.03-.985.05V15.228L24.61 4.892 3.938 15.228v13.868a26.547 26.547 0 0011.836 22.12l8.835 5.887 6.44-4.29c.276.6.587 1.184.931 1.748l-7.37 4.913zm5.704-8.535l-5.704 3.8-7.742-5.16a24.671 24.671 0 01-1.117-.797v-8.798h-1.969v7.146a24.588 24.588 0 01-2.953-3.278v-5.72c0-1.354.921-2.534 2.234-2.864l6.676-1.673a4.916 4.916 0 003.887 4.321v4.036h1.969v-4.036a4.914 4.914 0 003.886-4.321l4.382 1.1a16.65 16.65 0 00-3.55 16.243zM19.688 21.28h2.72c1.52-.002 3.02-.338 4.396-.984h.266l2.461 3.28v4.103l-3.28 2.46h-3.283l-3.28-2.46V21.28zM17.8 19.312a3.85 3.85 0 012.108-2.845 9.94 9.94 0 016.912-.435l.227.326h1.499c.543 0 .984.441.984.985v2.953l-1.476-1.969h-1.709l-.208.104a8.393 8.393 0 01-3.73.88H17.8zm9.762 12.304v1.477a2.953 2.953 0 01-5.907 0v-1.477l.657.492h4.593l.657-.492zm1.968-.038V30.14l1.969-1.477v-11.32a2.953 2.953 0 00-2.953-2.953h-.655c-1.424-.866-4.97-1.04-7.481-.256a6.126 6.126 0 00-4.661 6.162v.984h1.969v7.383l1.968 1.477v1.433l-7.105 1.787a4.913 4.913 0 00-3.723 4.772v2.658a24.583 24.583 0 01-2.953-11.694V16.445L24.61 7.093l18.703 9.352v12.651c0 .113-.006.226-.007.338a16.657 16.657 0 00-7.789 3.648l-5.985-1.504zm16.735 29.077c-8.155 0-14.766-6.61-14.766-14.765 0-8.156 6.61-14.766 14.766-14.766 8.154 0 14.765 6.61 14.765 14.766-.009 8.15-6.614 14.756-14.765 14.765z" fill="#02133C"/><path d="M51.188 17.343H63v1.969H51.187v-1.97zm0 3.937h7.874v1.97h-7.874v-1.97zm0 3.938h3.937v1.969h-3.938v-1.97z" fill="#E30B0B"/><circle cx="45.938" cy="45.938" r="17.063" fill="#C40B0B"/><path d="M43.87 46.224l-3.668-3.319-3.452 3.138 7.12 6.457 11.255-12.612-3.452-3.138-7.803 9.474z" fill="#fff"/></g><defs><clipPath id="clip0_767:767"><path fill="#fff" d="M0 0h63v63H0z"/></clipPath></defs></svg>