<svg width="76" height="76" fill="none" xmlns="http://www.w3.org/2000/svg"><g clip-path="url(#clip0_767:33)" fill="#fff"><path d="M17.167 56.39h2.451v2.45h-2.451v-2.45z"/><path d="M71 9.19L48.738.28c-2.164-.802-4.435.28-5.228 2.274l-1.556 3.88c-.181.487-.273.98-.273 1.467 0 .807.252 1.59.696 2.253l-3.584 8.238h-1.584l-3.581-8.235a4.054 4.054 0 00.698-2.256c0-.486-.092-.98-.284-1.5L32.5 2.558c-.796-2-2.965-3.123-5.26-2.267L5.01 9.19a4.025 4.025 0 00-2.55 3.76c0 .486.092.98.284 1.5l1.543 3.844a4.015 4.015 0 003.488 2.53l11.2 25.76h-3.033a3.682 3.682 0 00-3.677 3.676c0 .995.388 1.919 1.071 2.584.228.235.49.418.764.58a6.325 6.325 0 00-1.646 5.791L16.184 76h38.72l5.321-22.175a9.746 9.746 0 008.42-9.693c0-4.2-2.68-7.877-6.529-9.234l6.117-14.074a4.018 4.018 0 003.488-2.526l1.555-3.879c.18-.49.272-.982.272-1.469A4.024 4.024 0 0071 9.19zm-28.633 7.136l3.74 1.578.953-2.26-3.715-1.567 1.028-2.36L65.79 20.29l-1.192 2.744-15.262-6.423-.95 2.26 15.234 6.411-1.203 2.769-14.626-6.153c-.092-1.947-1.692-3.506-3.66-3.506h-2.664l.899-2.066zm-12.92 32.278a7.352 7.352 0 016.105-3.246 7.351 7.351 0 016.105 3.246 7.306 7.306 0 011.25 4.108 7.305 7.305 0 01-1.25 4.107 7.35 7.35 0 01-6.105 3.247 7.361 7.361 0 01-6.105-11.462zm2.428-5.698a3.632 3.632 0 01-3.32-2.112c-.052-.109-.076-.226-.118-.34h14.241a3.652 3.652 0 01-3.448 2.452h-7.355zm-13-2.699l4.72-1.981a3.682 3.682 0 002.248 2.033c.024.134.046.268.078.4l-5.788 2.44-1.258-2.892zm25.257-19.363c.676 0 1.226.55 1.226 1.226v6.128H34.326a3.682 3.682 0 00-3.677 3.677 3.59 3.59 0 001.072 2.584 3.607 3.607 0 002.605 1.093h11.032v1.226c0 .675-.55 1.226-1.226 1.226h-17.16c-.675 0-1.225-.55-1.225-1.226v-6.202c0-.574.13-1.135.384-1.634l3.027-6.064a3.72 3.72 0 013.293-2.034h11.68zm5.223 25.74H43.19a9.764 9.764 0 00-1.7-1.659 6.073 6.073 0 003.533-3.737l4.093 1.722a9.347 9.347 0 00-.082 1.222c0 .838.115 1.656.32 2.451zM45.358 33.1H34.326c-.327 0-.629-.125-.872-.375a1.175 1.175 0 01-.353-.85c0-.676.55-1.227 1.225-1.227h11.032V33.1zm-21.415-5.262a5.998 5.998 0 00-.607 2.053l-7.564 3.177-1.204-2.769 10.314-4.343-.939 1.882zm-.648 4.729v3.127L17.9 37.96l-1.15-2.644 6.546-2.75zM44.62 49.035h5.747a9.726 9.726 0 002.127 2.546l-1.85 4.808H44.62a9.758 9.758 0 00.738-3.677 9.76 9.76 0 00-.738-3.677zm5.128-8.518L46.81 39.28a3.654 3.654 0 00.999-2.503v-.494l3.58 1.51a9.702 9.702 0 00-1.64 2.723zm3.684-4.522l-5.623-2.372v-3.126l9.412 3.962c-1.367.224-2.639.763-3.789 1.536zm6.806-2.926l-12.429-5.231v-3.273l13.632 5.737-1.203 2.767zM32.45 18.392a6.191 6.191 0 00-5.486 3.39l-.402.808-12.973 5.46-1.203-2.767 21.254-8.957.9 2.066h-2.09zM6.562 17.384L5.03 13.566a1.8 1.8 0 01-.12-.616 1.59 1.59 0 011.008-1.485L28.122 2.58c.939-.348 1.787.097 2.1.889l1.533 3.817c.078.211.12.425.12.616 0 .445-.179.859-.512 1.17a1.608 1.608 0 01-.493.315l-3.138 1.25.907 2.277 2.998-1.194 1.032 2.373-21.26 8.945-1.193-2.744 15.985-6.4-.91-2.275-16.643 6.66c-.096.039-.2.067-.247.078-.772.106-1.552-.25-1.839-.972zM21.11 45.348l5.86-2.471a6.006 6.006 0 002.649 2.043 9.78 9.78 0 00-1.705 1.663h-6.267l-.537-1.235zm31.86 28.2H18.15l-3.306-14.867a3.903 3.903 0 013.804-4.743c1.582 0 2.994.94 3.6 2.396l5.132 12.312h7.172c.508 1.423 1.856 2.451 3.452 2.451a3.681 3.681 0 003.677-3.677c0-.152-.027-.297-.046-.445l4.27-2.135-1.096-2.193-4.26 2.13a3.655 3.655 0 00-2.545-1.034c-1.596 0-2.944 1.028-3.452 2.451h-5.538L24.512 55.39a6.331 6.331 0 00-5.862-3.904h-2.71c-.327 0-.629-.125-.873-.374a1.175 1.175 0 01-.353-.852c0-.675.551-1.225 1.226-1.225h10.543a9.772 9.772 0 00-.737 3.677c0 5.406 4.398 9.805 9.805 9.805a9.784 9.784 0 007.639-3.677h9.137l5.89-15.316a.955.955 0 01.892-.618.96.96 0 01.929 1.185L52.97 73.549zM36.778 67.42c0-.675.55-1.226 1.226-1.226a1.227 1.227 0 010 2.452c-.676 0-1.226-.55-1.226-1.226zm29.416-23.288c0 3.37-2.242 6.2-5.339 7.061l1.57-6.543a3.411 3.411 0 00-3.315-4.195 3.4 3.4 0 00-3.18 2.183l-2.486 6.47a7.286 7.286 0 01-1.254-1.822 7.328 7.328 0 01-.492-4.882 7.254 7.254 0 012.62-4.064 7.22 7.22 0 014.522-1.562c.5 0 .95.044 1.4.138a7.353 7.353 0 015.954 7.216zm4.795-30.596l-1.546 3.853a1.588 1.588 0 01-1.484 1.003c-.115 0-.239-.02-.288-.025a2.015 2.015 0 01-.298-.082L45.146 9.389a1.638 1.638 0 01-.502-.318l-.006-.006a1.577 1.577 0 01-.506-1.164c0-.191.042-.405.108-.586l1.545-3.852a1.588 1.588 0 011.485-1.004c.19 0 .404.041.587.107l22.236 8.9c.61.243 1.004.825 1.004 1.485 0 .191-.042.404-.108.585z"/><path d="M38.004 52.712c0 .358-.081.702-.25 1.056l2.216 1.051a4.88 4.88 0 00.485-2.107 4.908 4.908 0 00-4.903-4.903c-.72 0-1.428.163-2.106.485l1.051 2.215c1.687-.803 3.507.493 3.507 2.203zm-2.452 4.902a4.88 4.88 0 002.107-.485l-1.052-2.215c-1.687.802-3.507-.494-3.507-2.202 0-.358.081-.702.25-1.056l-2.216-1.051a4.877 4.877 0 00-.485 2.107 4.908 4.908 0 004.903 4.902zm4.903-34.319h2.451v2.452h-2.451v-2.452zm-4.903 0h2.452v2.452h-2.452v-2.452zm-4.902 0h2.45v2.452h-2.45v-2.452z"/></g><defs><clipPath id="clip0_767:33"><path fill="#fff" d="M0 0h76v76H0z"/></clipPath></defs></svg>