<svg width="76" height="76" fill="none" xmlns="http://www.w3.org/2000/svg"><path d="M64.968 31.871h-23.29v-2.452h1.919l6.07-10.117a12.754 12.754 0 001.817-6.557C51.484 5.717 45.766 0 38.739 0h-1.477c-7.029 0-12.746 5.717-12.746 12.745 0 2.309.63 4.577 1.815 6.558l6.072 10.116h1.92v2.452h-23.29a3.682 3.682 0 00-3.678 3.677v36.775A3.682 3.682 0 0011.032 76h53.936a3.682 3.682 0 003.677-3.677V35.548a3.682 3.682 0 00-3.677-3.677zm-20.84 41.677h-4.902V61.29h7.355v-7.355h4.903V44.13h-9.807v-4.903H61.29v12.258h-4.903v7.355h-4.903v7.355h-7.355v7.354zm4.904-60.803c0 .822-.115 1.634-.307 2.426-4.2-1.627-7.048-5.692-7.048-10.268V2.884c4.248 1.27 7.355 5.206 7.355 9.86zm-14.71-9.86v2.018c0 4.576-2.847 8.64-7.047 10.268a10.289 10.289 0 01-.307-2.426c0-4.655 3.107-8.592 7.354-9.86zM28.433 18.04c-.11-.186-.194-.385-.293-.576 5.145-1.986 8.634-6.96 8.634-12.562V2.476c.163-.007.323-.024.487-.024h1.477c.165 0 .325.017.488.024v2.427c0 5.602 3.489 10.576 8.634 12.561-.1.191-.182.39-.294.576l-5.357 8.928h-8.417l-5.359-8.927zm10.794 11.38v14.71h-2.452V29.42h2.452zm-4.904 14.71H29.42v-4.903h4.903v4.903zM9.806 72.323V35.548c0-.675.55-1.225 1.226-1.225h23.29v2.451h-7.354v9.807h22.064v4.903H44.13v7.355h-7.355v14.71H11.032c-.676 0-1.226-.55-1.226-1.226zm56.387 0c0 .676-.549 1.225-1.225 1.225H46.58v-4.903h7.355V61.29h4.904v-7.355h4.903v-17.16H41.677v-2.452h23.29c.677 0 1.226.55 1.226 1.225v36.775z" fill="#fff"/><path d="M12.258 46.58h12.258v-9.806H12.258v9.807zm2.451-7.354h7.355v4.903H14.71v-4.903zm-2.451 31.871h9.806V49.032h-9.806v22.065zm2.451-2.452v-2.451h4.904v2.451h-4.904zm4.904-7.355v2.452h-4.904V61.29h4.904zm-4.904-2.451v-2.452h4.904v2.452h-4.904zm4.904-7.355v2.451h-4.904v-2.451h4.904z" fill="#fff"/></svg>